<?xml version="1.0" encoding="UTF-8"?><svg xmlns="http://www.w3.org/2000/svg" viewBox="0 0 125.98 59.45"><g id="a"/><g id="b"><g id="c"><g><path d="M125.98,.96s-.06,.02-.06,.04c-.32,1.09-.63,2.18-.95,3.27-1.19,4.01-2.38,8.01-3.57,12.01-.18,.59-.27,1.18-.26,1.8,0,2.69,0,5.38,0,8.06,0,.14,0,.29,0,.45-.07,.01-.13,.03-.19,.03-1.95,0-3.9,0-5.85,0-.06,0-.13-.01-.21-.02-.04-.54-.06-1.07-.01-1.59,.02-.26,.04-.53,.06-.79,.07-1.18,.06-2.36,0-3.53-.05-.94-.15-1.87-.28-2.8-.43-3.12-1.24-6.14-2.24-9.12-.64-1.89-1.16-3.82-1.69-5.74-.2-.71-.4-1.43-.59-2.14-.02-.07-.03-.15-.04-.23,.37-.05,4.56-.07,6.05-.03,.06,0,.13,.01,.2,.02,.54,3.1,1.07,6.19,1.6,9.27,0,0,.02,0,.07,.01,.21-1.03,.39-2.06,.59-3.09,.2-1.03,.39-2.05,.58-3.08,.2-1.04,.4-2.08,.6-3.12,.1,0,.18-.02,.26-.02,1.95,0,3.9,0,5.85,0,.04,0,.08,0,.12,0v.32Z" fill="#fafcfe"/><path d="M35.79,35.81c.37-.05,8.06-.05,8.44,0,.05,.14,.1,.28,.15,.43,.34,1.13,.83,2.2,1.4,3.24,.45,.81,.96,1.58,1.54,2.31,.34,.43,.68,.85,1.06,1.23,.18,.18,.33,.38,.51,.56,.9,.87,1.85,1.7,2.87,2.44,.88,.64,1.8,1.22,2.75,1.74,1.15,.63,2.35,1.15,3.58,1.6,1.28,.47,2.6,.79,3.93,1.08,.55,.12,1.12,.18,1.68,.27,.52,.08,1.04,.17,1.57,.22,.53,.05,1.06,.04,1.58,.11,.86,.1,1.72,.07,2.58,.05,.65-.01,1.29-.05,1.94-.13,.29-.04,.58-.05,.87-.09,.73-.09,1.46-.22,2.19-.36,1.01-.2,2.01-.47,2.99-.79,.74-.24,1.48-.51,2.19-.84,.67-.31,1.35-.62,2-.96,1.15-.6,2.24-1.3,3.3-2.05,.56-.4,1.12-.81,1.63-1.27,.56-.5,1.13-1,1.63-1.57,.51-.59,1.03-1.18,1.47-1.82,.31-.44,.61-.9,.89-1.36,.21-.34,.39-.69,.57-1.05,.39-.77,.71-1.56,.99-2.38,.07-.21,.16-.39,.33-.53,.08-.07,.17-.12,.28-.12,.11,0,.21,0,.32,0,2.4,0,4.8,0,7.2,0,.14,0,.29,0,.42,.01,.1,.13,.08,.25,.06,.36-.18,1-.42,1.99-.73,2.96-.48,1.48-1.13,2.88-1.86,4.25-.67,1.24-1.43,2.41-2.29,3.52-.46,.6-.93,1.19-1.46,1.73-.38,.39-.73,.8-1.12,1.18-.49,.47-.99,.92-1.5,1.36-.5,.43-1.02,.84-1.54,1.25-.85,.65-1.74,1.25-2.66,1.8-.53,.32-1.07,.63-1.62,.93-.49,.27-.98,.53-1.48,.77-1.03,.49-2.07,.94-3.14,1.33-1.45,.54-2.94,.97-4.45,1.31-.63,.14-1.27,.25-1.9,.37-.43,.08-.86,.15-1.29,.21-.31,.05-.63,.07-.95,.1-.39,.04-.79,.09-1.18,.13-.04,0-.08,.01-.12,.01-.59,.03-1.19,.08-1.78,.09-1.05,.01-2.1,.01-3.14,0-.5,0-1-.04-1.5-.09-.5-.04-1-.09-1.5-.16-.46-.06-.91-.14-1.37-.21-.94-.14-1.87-.34-2.8-.56-1.39-.33-2.75-.76-4.09-1.25-1.56-.57-3.07-1.23-4.53-2.01-.64-.34-1.27-.72-1.89-1.09-.9-.53-1.76-1.14-2.58-1.77-.38-.29-.74-.6-1.11-.9-.9-.72-1.71-1.54-2.51-2.37-.62-.64-1.18-1.32-1.73-2.01-.58-.73-1.11-1.48-1.6-2.27-.27-.44-.53-.89-.78-1.33-.15-.26-.3-.53-.44-.8-.83-1.69-1.5-3.44-1.93-5.28-.11-.46-.2-.93-.29-1.39,0-.04,0-.08,.01-.14Z" fill="#fafcfe"/><path d="M89.99,16.67h.18c.31-2.67,.58-5.34,.88-8.01,.29-2.67,.58-5.34,.87-8,.35-.05,6.3-.05,6.68,0,.02,.15-.03,.3-.04,.46-.02,.16-.03,.32-.05,.47-.1,.85-.2,1.71-.3,2.56-.09,.8-.19,1.6-.28,2.41-.09,.79-.18,1.58-.27,2.37-.09,.82-.19,1.63-.28,2.45-.09,.79-.18,1.58-.27,2.37-.09,.8-.19,1.6-.29,2.4-.09,.74-.17,1.47-.27,2.21-.1,.72-.19,1.44-.31,2.16-.06,.36-.18,.72-.3,1.07-.38,1.17-.84,2.31-1.32,3.44-.15,.34-.28,.68-.42,1.03-.22,.53-.39,.65-.96,.65-1.02,0-2.04-.02-3.06-.02-.76,0-1.51,.01-2.27,.02-.12,0-.24,0-.36-.01-.31-.04-.47-.18-.54-.5-.06-.31-.11-.63-.15-.94-.18-1.19-.36-2.38-.54-3.57-.17-1.13-.34-2.25-.51-3.38-.15-.98-.31-1.96-.47-2.94-.05-.33-.16-.64-.39-.95-.14,.47-.15,.92-.22,1.36-.08,.46-.13,.92-.19,1.38-.06,.45-.13,.89-.19,1.34-.06,.45-.13,.89-.19,1.34-.06,.46-.12,.92-.19,1.38-.06,.45-.13,.89-.2,1.34-.06,.45-.12,.89-.18,1.34-.06,.46-.13,.92-.19,1.38-.06,.45-.13,.89-.19,1.36-.08,0-.16,.03-.23,.03-2.66,0-5.33,0-7.99,0-.07,0-.13,0-.21-.01-.02-.07-.04-.13-.05-.19-1-8.53-1.99-17.06-2.98-25.59,0-.05,0-.1,0-.15,.31-.05,5.97-.06,6.55-.02,.09,.33,.07,.67,.11,1.01,.04,.35,.06,.71,.09,1.07,.03,.34,.05,.69,.08,1.03,.03,.36,.06,.71,.08,1.07,.03,.34,.05,.69,.08,1.03,.03,.36,.06,.71,.08,1.07,.03,.34,.05,.69,.08,1.03,.03,.36,.06,.71,.08,1.07,.03,.34,.05,.69,.08,1.03,.03,.36,.06,.71,.08,1.07,.03,.34,.05,.69,.08,1.03,.03,.36,.06,.71,.08,1.07,.03,.34,.05,.69,.08,1.03,.03,.36,.05,.71,.09,1.07,.03,.34,.06,.68,.09,1.01,.09,.04,.16,.04,.18-.04,.02-.08,.02-.16,.03-.24,.12-1.06,.25-2.13,.37-3.19,.09-.8,.18-1.6,.27-2.41,.09-.82,.19-1.63,.28-2.45,.09-.79,.18-1.58,.27-2.37,.1-.85,.2-1.71,.29-2.56,.09-.76,.17-1.53,.26-2.29,0-.04,.01-.08,.02-.11,.01,0,.02-.02,.04-.02,.01,0,.02-.02,.04-.02,2.27,0,4.53,0,6.8,0,.08,0,.16,0,.24,0,.06,.12,.05,.24,.06,.36,.02,.12,.03,.24,.04,.36,.1,1.27,.21,2.53,.31,3.8,.06,.82,.12,1.64,.19,2.46,.09,1.15,.19,2.3,.28,3.44,.06,.79,.12,1.58,.19,2.38,.08,1.04,.17,2.09,.25,3.13,0,.04,.02,.07,.04,.12Z" fill="#fafcfe"/><path d="M26.31,.66c.1,0,.18-.02,.25-.02,2.06-.04,6.05-.02,6.45,.04,.07,.18,.05,.38,.05,.58,0,1.89,0,3.79,0,5.68,0,3.42,0,6.83,0,10.25,0,.97,.03,1.93,.03,2.9,0,.74-.06,1.48-.24,2.21-.56,2.25-1.95,3.74-4.14,4.49-.68,.23-1.38,.37-2.1,.41-.45,.02-.9,.06-1.35,.05-1.57-.04-3.07-.36-4.47-1.09-.81-.42-1.52-.97-2.07-1.7-.64-.85-.97-1.81-1.04-2.87-.01-.17-.01-.34-.01-.52-.02-4.41-.03-8.82-.04-13.23,0-2.25,0-4.5,0-6.75,0-.14-.03-.29,.04-.43,.29-.04,6.12-.06,6.66-.01,.01,.07,.04,.14,.04,.21,0,.12,0,.24,0,.36,0,6.5,0,13.01,0,19.51,0,.37,.03,.74,.07,1.11,.04,.37,.22,.64,.54,.83,.12,.07,.25,.1,.38,.06,.34-.11,.64-.29,.74-.65,.07-.27,.11-.54,.14-.82,.02-.24,0-.48,0-.71,0-6.46,.01-12.93,.02-19.39,0-.16,0-.31,.01-.49Z" fill="#fafcfe"/><path d="M42.48,26.63c-2.21,0-4.37,0-6.53,0-.05,0-.1-.02-.16-.03,0-.06-.03-.11-.03-.16,0-8.63,0-17.27,0-25.92,.09-.01,.17-.04,.24-.04,.52,.01,1.03,.03,1.55,.05,.12,0,.24,0,.36,.01,1.48,.03,2.97,.06,4.45,.11,.87,.03,1.75,.09,2.62,.13,.45,.03,.9,.06,1.35,.09,.49,.03,.97,.14,1.43,.3,1.19,.41,2,1.21,2.46,2.37,.19,.48,.32,.98,.39,1.5,.19,1.37,.21,2.74,.12,4.12-.02,.3-.02,.61-.04,.91-.02,.26-.04,.53-.1,.79-.18,.77-.63,1.33-1.33,1.7-.29,.15-.61,.25-.93,.33-.21,.05-.44,.06-.63,.2,.05,.14,.17,.14,.26,.18,.33,.15,.66,.27,.98,.44,.43,.22,.8,.52,1.1,.9,.43,.55,.64,1.18,.75,1.86,.07,.42,.09,.84,.09,1.27,0,2.83,0,5.67,0,8.5,0,.12,0,.23-.01,.33-.03,.03-.04,.04-.05,.05-.01,0-.02,.01-.04,.01-.09,0-.19,0-.28,0-1.94,0-3.87,0-5.81,0-.02,0-.05-.02-.1-.04,0-.1-.02-.21-.02-.33-.02-2.71-.04-5.43-.05-8.14,0-.5,0-1.01-.02-1.51,0-.24-.03-.48-.08-.71-.12-.55-.47-.84-1.03-.86-.28-.01-.55-.01-.84,.04-.01,.09-.03,.16-.04,.24,0,.11,0,.21,0,.32,0,3.5,0,6.99,0,10.49,0,.16,0,.31-.01,.52Zm.03-15.93c.32,.12,.75,.13,1.11,.05,.37-.08,.61-.3,.73-.65,.06-.19,.11-.38,.14-.58,.1-.92,.13-1.85,.07-2.77-.02-.27-.07-.55-.15-.81-.12-.4-.4-.65-.81-.74-.3-.07-.6-.1-.91-.07-.05,0-.1,.03-.19,.05,0,1.84,0,3.69,0,5.52Z" fill="#fafcfe"/><path d="M15.03,8.42c-.1,0-.17,.02-.25,.02-2.02,.04-5.74,.02-6.14-.04,0-.1-.02-.2-.02-.3,0-.78,0-1.56,0-2.34,0-.2-.03-.4-.07-.59-.08-.37-.37-.62-.74-.66-.75-.09-1.12,.33-1.24,.8-.18,.75-.25,1.51-.1,2.28,.11,.58,.38,1.07,.81,1.47,.22,.2,.47,.39,.72,.55,1.37,.9,2.76,1.78,4.13,2.68,.96,.62,1.75,1.41,2.34,2.39,.48,.81,.78,1.68,.92,2.6,.07,.42,.09,.84,.09,1.27,0,.91,0,1.83-.04,2.74-.02,.5-.06,1-.13,1.5-.18,1.33-.87,2.34-2.02,3.03-1.03,.62-2.15,1.03-3.32,1.27-.96,.2-1.92,.23-2.89,.14-1.13-.1-2.21-.39-3.26-.82-.49-.2-.96-.44-1.39-.75-1.12-.82-1.76-1.92-1.93-3.29-.07-.59-.11-1.19-.15-1.78-.06-.92-.11-1.85-.16-2.77,0-.12,0-.24,0-.36,.11-.11,.25-.06,.38-.06,1.43,0,2.86,0,4.3,0,.45,0,.9,0,1.35,0,.1,0,.21,0,.33,.02,0,.14,.02,.25,.02,.37,0,1.03,0,2.07,0,3.1,0,.29,.04,.58,.07,.87,0,.08,.03,.16,.05,.23,.12,.43,.36,.73,.83,.79,.48,.06,.9-.05,1.2-.45,.19-.25,.28-.54,.31-.85,.07-.63,.11-1.27,.02-1.9-.11-.72-.37-1.38-.8-1.96-.13-.18-.31-.33-.48-.47-1.31-1.05-2.68-2.03-4.12-2.91-.53-.32-1.04-.69-1.49-1.12-1.04-1-1.66-2.22-1.94-3.62-.24-1.18-.23-2.37-.12-3.56,.04-.37,.06-.74,.11-1.11,.14-.95,.47-1.81,1.08-2.56,.55-.67,1.25-1.14,2.05-1.46,.76-.31,1.56-.51,2.37-.65C6.34,.05,7,0,7.66,0c1.66,.02,3.22,.42,4.71,1.13,.47,.22,.89,.52,1.26,.89,.63,.63,1.01,1.39,1.11,2.27,.07,.6,.11,1.21,.16,1.82,.05,.71,.09,1.43,.13,2.14,0,.04,0,.08,0,.17Z" fill="#fafcfe"/><path d="M64.73,.65c.05,.43,.05,4.77,0,5.08-.11,.09-.25,.05-.38,.05-1.17,0-2.33,0-3.5,0-.14,0-.29,0-.45,0-.02,.1-.04,.17-.04,.25,0,1.48,0,2.97,0,4.45,0,.06,0,.13,.01,.18,.12,.1,.24,.06,.36,.06,1.11,0,2.23,0,3.34,0,.13,0,.26,0,.39,.01,.02,.06,.04,.09,.04,.13,0,1.58,0,3.15,0,4.71-.12,.11-.24,.07-.36,.07-1.11,0-2.23,0-3.34,0-.13,0-.26,0-.39,0-.12,.13-.07,.27-.07,.39,0,1.39,0,2.78,0,4.17,0,.3,0,.61,0,.91,0,.09,.01,.18,.02,.29,.28,.03,.54,.01,.81,.01,.28,0,.56,0,.84,0h1.59c.28,0,.56,0,.84,0,.26,0,.53-.02,.78,.02,.02,.06,.04,.1,.04,.13,0,1.65,0,3.31,0,4.98-.09,.02-.16,.03-.24,.04-.09,0-.19,0-.28,0-3.55,0-7.11,0-10.66,0-.16,0-.31,0-.5-.01,0-.09-.02-.17-.02-.24,0-.09,0-.19,0-.28,0-8.32,0-16.63,0-24.95,0-.16,0-.31,0-.44,.04-.03,.05-.04,.06-.05,.01,0,.02-.01,.04-.01,3.63,0,7.27,0,10.9,0,.05,0,.1,.01,.17,.02Z" fill="#fafcfe"/><path d="M92.76,34.88c-.08-.1-.04-.19,0-.27,.19-.47,.38-.93,.58-1.39,2.51-6.09,5.02-12.19,7.52-18.28,1.91-4.64,3.82-9.28,5.73-13.91,.05-.11,.09-.22,.15-.32,.01-.03,.06-.04,.1-.06,.14,.12,.14,.29,.19,.43,.49,1.5,.97,3,1.45,4.49,1.33,4.13,2.65,8.27,3.97,12.4,.04,.11,.06,.23,.09,.34,.08,.3-.02,.55-.23,.76-.1,.1-.22,.19-.34,.28-1.97,1.5-3.94,3.01-5.91,4.51-1.5,1.15-3,2.31-4.5,3.47-.09,.07-.19,.15-.27,.23-.03,.03-.05,.1-.03,.14,.03,.07,.1,.09,.17,.06,.1-.04,.19-.08,.29-.13,1.16-.58,2.32-1.17,3.48-1.75,.11-.06,.22-.16,.37-.11,.01,.03,.03,.07,.03,.1,0,1.92,0,3.84,0,5.76,0,.04-.02,.07-.03,.11-.12,.05-.21-.03-.3-.08-.84-.45-1.68-.9-2.52-1.35-.88-.47-1.75-.94-2.63-1.41-.1-.06-.2-.12-.32-.19,.03-.14,.05-.27,.08-.39,.64-2.57,1.28-5.13,1.92-7.7,.84-3.38,1.68-6.75,2.52-10.13,.32-1.28,.65-2.56,.98-3.85,.05-.21,.04-.3-.04-.3-.17,0-.15,.16-.18,.26-.19,.68-.36,1.35-.55,2.03-.69,2.51-1.38,5.03-2.08,7.54-.83,3.01-1.67,6.02-2.5,9.03-.2,.71-.4,1.43-.6,2.14-.12,.45-.21,.9-.34,1.34-.38,1.23-1.11,2.22-2.19,2.93-.72,.48-1.37,1.04-2.01,1.62-.49,.43-.97,.86-1.46,1.29-.18,.16-.37,.3-.6,.35Zm12.64-29.02s.09-.02,.09-.04c0-.06,.01-.12,0-.18,0-.01-.05-.04-.06-.03-.03,.02-.06,.05-.07,.07,0,.06,.02,.11,.03,.18Z" fill="#f7eb1c"/><path d="M105.4,5.86c-.01-.06-.03-.12-.03-.18,0-.03,.04-.06,.07-.07,0,0,.06,.02,.06,.03,0,.06,0,.12,0,.18,0,.01-.04,.02-.09,.04Z" fill="#fafcfe"/></g></g></g></svg>